<mxfile host="Electron" modified="2023-10-12T09:17:19.544Z" agent="Mozilla/5.0 (Windows NT 10.0; Win64; x64) AppleWebKit/537.36 (KHTML, like Gecko) draw.io/22.0.2 Chrome/114.0.5735.289 Electron/25.8.4 Safari/537.36" etag="xgPzTEeYmBWLwExUq_MY" version="22.0.2" type="device">
  <diagram name="Page-1" id="nPkqDjinHQpBeGgGiTO2">
    <mxGraphModel dx="2285" dy="689" grid="1" gridSize="10" guides="1" tooltips="1" connect="1" arrows="1" fold="1" page="1" pageScale="1" pageWidth="1100" pageHeight="850" math="0" shadow="0">
      <root>
        <mxCell id="0" />
        <mxCell id="1" parent="0" />
        <mxCell id="t-MH8Xzyu4oS2_ZOzKa4-7" style="edgeStyle=orthogonalEdgeStyle;rounded=0;orthogonalLoop=1;jettySize=auto;html=1;entryX=1;entryY=0.5;entryDx=0;entryDy=0;" edge="1" parent="1" source="t-MH8Xzyu4oS2_ZOzKa4-1" target="t-MH8Xzyu4oS2_ZOzKa4-5">
          <mxGeometry relative="1" as="geometry" />
        </mxCell>
        <mxCell id="t-MH8Xzyu4oS2_ZOzKa4-18" style="edgeStyle=orthogonalEdgeStyle;rounded=0;orthogonalLoop=1;jettySize=auto;html=1;entryX=0.5;entryY=1;entryDx=0;entryDy=0;dashed=1;" edge="1" parent="1" source="t-MH8Xzyu4oS2_ZOzKa4-1" target="t-MH8Xzyu4oS2_ZOzKa4-17">
          <mxGeometry relative="1" as="geometry" />
        </mxCell>
        <mxCell id="t-MH8Xzyu4oS2_ZOzKa4-1" value="MorCore" style="rounded=0;whiteSpace=wrap;html=1;fillColor=#dae8fc;strokeColor=#6c8ebf;" vertex="1" parent="1">
          <mxGeometry x="570" y="395" width="120" height="60" as="geometry" />
        </mxCell>
        <mxCell id="t-MH8Xzyu4oS2_ZOzKa4-3" style="edgeStyle=orthogonalEdgeStyle;rounded=0;orthogonalLoop=1;jettySize=auto;html=1;entryX=0.5;entryY=1;entryDx=0;entryDy=0;" edge="1" parent="1" source="t-MH8Xzyu4oS2_ZOzKa4-2" target="t-MH8Xzyu4oS2_ZOzKa4-1">
          <mxGeometry relative="1" as="geometry" />
        </mxCell>
        <mxCell id="t-MH8Xzyu4oS2_ZOzKa4-2" value="MeldR App" style="rounded=0;whiteSpace=wrap;html=1;fillColor=#dae8fc;strokeColor=#6c8ebf;" vertex="1" parent="1">
          <mxGeometry x="570" y="520" width="120" height="60" as="geometry" />
        </mxCell>
        <mxCell id="t-MH8Xzyu4oS2_ZOzKa4-6" style="edgeStyle=orthogonalEdgeStyle;rounded=0;orthogonalLoop=1;jettySize=auto;html=1;entryX=0.5;entryY=0;entryDx=0;entryDy=0;dashed=1;" edge="1" parent="1" source="t-MH8Xzyu4oS2_ZOzKa4-4" target="t-MH8Xzyu4oS2_ZOzKa4-5">
          <mxGeometry relative="1" as="geometry" />
        </mxCell>
        <mxCell id="t-MH8Xzyu4oS2_ZOzKa4-9" style="edgeStyle=orthogonalEdgeStyle;rounded=0;orthogonalLoop=1;jettySize=auto;html=1;entryX=0.5;entryY=1;entryDx=0;entryDy=0;dashed=1;" edge="1" parent="1" source="t-MH8Xzyu4oS2_ZOzKa4-4" target="t-MH8Xzyu4oS2_ZOzKa4-8">
          <mxGeometry relative="1" as="geometry" />
        </mxCell>
        <mxCell id="t-MH8Xzyu4oS2_ZOzKa4-4" value="Frank!Framework&lt;br&gt;MorCore2eSuites" style="rounded=0;whiteSpace=wrap;html=1;fillColor=#fff2cc;strokeColor=#d6b656;" vertex="1" parent="1">
          <mxGeometry x="350" y="270" width="120" height="60" as="geometry" />
        </mxCell>
        <mxCell id="t-MH8Xzyu4oS2_ZOzKa4-13" style="edgeStyle=orthogonalEdgeStyle;rounded=0;orthogonalLoop=1;jettySize=auto;html=1;entryX=0.5;entryY=0;entryDx=0;entryDy=0;exitX=0;exitY=0.5;exitDx=0;exitDy=0;" edge="1" parent="1" source="t-MH8Xzyu4oS2_ZOzKa4-4" target="t-MH8Xzyu4oS2_ZOzKa4-11">
          <mxGeometry relative="1" as="geometry" />
        </mxCell>
        <mxCell id="t-MH8Xzyu4oS2_ZOzKa4-5" value="Taakapplicatie API" style="rounded=0;whiteSpace=wrap;html=1;fillColor=#fff2cc;strokeColor=#d6b656;" vertex="1" parent="1">
          <mxGeometry x="350" y="395" width="120" height="60" as="geometry" />
        </mxCell>
        <mxCell id="t-MH8Xzyu4oS2_ZOzKa4-19" style="edgeStyle=orthogonalEdgeStyle;rounded=0;orthogonalLoop=1;jettySize=auto;html=1;entryX=0;entryY=0.5;entryDx=0;entryDy=0;exitX=1;exitY=0.5;exitDx=0;exitDy=0;" edge="1" parent="1" source="t-MH8Xzyu4oS2_ZOzKa4-4" target="t-MH8Xzyu4oS2_ZOzKa4-17">
          <mxGeometry relative="1" as="geometry" />
        </mxCell>
        <mxCell id="t-MH8Xzyu4oS2_ZOzKa4-8" value="ZGW Notificatie API" style="rounded=0;whiteSpace=wrap;html=1;fillColor=#fff2cc;strokeColor=#d6b656;" vertex="1" parent="1">
          <mxGeometry x="350" y="145" width="120" height="60" as="geometry" />
        </mxCell>
        <mxCell id="t-MH8Xzyu4oS2_ZOzKa4-12" style="edgeStyle=orthogonalEdgeStyle;rounded=0;orthogonalLoop=1;jettySize=auto;html=1;entryX=0;entryY=0.5;entryDx=0;entryDy=0;exitX=0.5;exitY=0;exitDx=0;exitDy=0;" edge="1" parent="1" source="t-MH8Xzyu4oS2_ZOzKa4-15" target="t-MH8Xzyu4oS2_ZOzKa4-8">
          <mxGeometry relative="1" as="geometry" />
        </mxCell>
        <mxCell id="t-MH8Xzyu4oS2_ZOzKa4-14" style="edgeStyle=orthogonalEdgeStyle;rounded=0;orthogonalLoop=1;jettySize=auto;html=1;entryX=0;entryY=0.5;entryDx=0;entryDy=0;dashed=1;exitX=1;exitY=0.5;exitDx=0;exitDy=0;" edge="1" parent="1" source="t-MH8Xzyu4oS2_ZOzKa4-15" target="t-MH8Xzyu4oS2_ZOzKa4-11">
          <mxGeometry relative="1" as="geometry" />
        </mxCell>
        <mxCell id="t-MH8Xzyu4oS2_ZOzKa4-16" style="edgeStyle=orthogonalEdgeStyle;rounded=0;orthogonalLoop=1;jettySize=auto;html=1;entryX=0;entryY=0.25;entryDx=0;entryDy=0;exitX=1;exitY=0.25;exitDx=0;exitDy=0;" edge="1" parent="1" source="t-MH8Xzyu4oS2_ZOzKa4-10" target="t-MH8Xzyu4oS2_ZOzKa4-15">
          <mxGeometry relative="1" as="geometry" />
        </mxCell>
        <mxCell id="t-MH8Xzyu4oS2_ZOzKa4-10" value="eSuites" style="rounded=0;whiteSpace=wrap;html=1;fillColor=#d5e8d4;strokeColor=#82b366;" vertex="1" parent="1">
          <mxGeometry x="-190" y="395" width="120" height="60" as="geometry" />
        </mxCell>
        <mxCell id="t-MH8Xzyu4oS2_ZOzKa4-11" value="ESB ZGW API&#39;s" style="rounded=0;whiteSpace=wrap;html=1;fillColor=#d5e8d4;strokeColor=#82b366;" vertex="1" parent="1">
          <mxGeometry x="160" y="395" width="120" height="60" as="geometry" />
        </mxCell>
        <mxCell id="t-MH8Xzyu4oS2_ZOzKa4-20" style="edgeStyle=orthogonalEdgeStyle;rounded=0;orthogonalLoop=1;jettySize=auto;html=1;entryX=1;entryY=0.75;entryDx=0;entryDy=0;exitX=0;exitY=0.75;exitDx=0;exitDy=0;" edge="1" parent="1" source="t-MH8Xzyu4oS2_ZOzKa4-15" target="t-MH8Xzyu4oS2_ZOzKa4-10">
          <mxGeometry relative="1" as="geometry" />
        </mxCell>
        <mxCell id="t-MH8Xzyu4oS2_ZOzKa4-15" value="ESB" style="rounded=0;whiteSpace=wrap;html=1;fillColor=#d5e8d4;strokeColor=#82b366;" vertex="1" parent="1">
          <mxGeometry x="-20" y="395" width="120" height="60" as="geometry" />
        </mxCell>
        <mxCell id="t-MH8Xzyu4oS2_ZOzKa4-17" value="Taak API" style="rounded=0;whiteSpace=wrap;html=1;fillColor=#dae8fc;strokeColor=#6c8ebf;" vertex="1" parent="1">
          <mxGeometry x="570" y="270" width="120" height="60" as="geometry" />
        </mxCell>
        <mxCell id="t-MH8Xzyu4oS2_ZOzKa4-21" value="Taak" style="text;html=1;strokeColor=none;fillColor=none;align=center;verticalAlign=middle;whiteSpace=wrap;rounded=0;" vertex="1" parent="1">
          <mxGeometry x="500" y="425" width="40" height="20" as="geometry" />
        </mxCell>
        <mxCell id="t-MH8Xzyu4oS2_ZOzKa4-23" value="Status updates" style="text;html=1;strokeColor=none;fillColor=none;align=center;verticalAlign=middle;whiteSpace=wrap;rounded=0;" vertex="1" parent="1">
          <mxGeometry x="470" y="300" width="100" height="20" as="geometry" />
        </mxCell>
        <mxCell id="t-MH8Xzyu4oS2_ZOzKa4-25" value="Status updates" style="text;html=1;strokeColor=none;fillColor=none;align=center;verticalAlign=middle;whiteSpace=wrap;rounded=0;" vertex="1" parent="1">
          <mxGeometry x="250" y="180" width="100" height="20" as="geometry" />
        </mxCell>
        <mxCell id="t-MH8Xzyu4oS2_ZOzKa4-26" value="Taak" style="text;html=1;strokeColor=none;fillColor=none;align=center;verticalAlign=middle;whiteSpace=wrap;rounded=0;" vertex="1" parent="1">
          <mxGeometry x="300" y="300" width="40" height="20" as="geometry" />
        </mxCell>
      </root>
    </mxGraphModel>
  </diagram>
</mxfile>
